<svg xmlns="http://www.w3.org/2000/svg" width="128" height="128" viewBox="0 0 128 128" role="img" aria-label="Gold grappler placeholder">
  <rect width="128" height="128" fill="none"/>
  <g shape-rendering="crispEdges">
    <rect x="28" y="112" width="72" height="8" fill="#151120" opacity=".55"/>
    <rect x="36" y="12" width="56" height="16" fill="#ffd34d"/>
    <rect x="40" y="28" width="48" height="36" fill="#f0b77a"/>
    <rect x="48" y="40" width="8" height="8" fill="#151120"/>
    <rect x="72" y="40" width="8" height="8" fill="#151120"/>
    <rect x="56" y="56" width="20" height="8" fill="#884033"/>
    <rect x="36" y="64" width="56" height="32" fill="#e0a73e"/>
    <rect x="24" y="68" width="16" height="28" fill="#f0b77a"/>
    <rect x="88" y="68" width="16" height="28" fill="#f0b77a"/>
    <rect x="16" y="92" width="20" height="16" fill="#ff4d6d"/>
    <rect x="92" y="92" width="20" height="16" fill="#ff4d6d"/>
    <rect x="48" y="96" width="12" height="24" fill="#332313"/>
    <rect x="68" y="96" width="12" height="24" fill="#332313"/>
    <rect x="40" y="120" width="20" height="8" fill="#07061a"/>
    <rect x="68" y="120" width="20" height="8" fill="#07061a"/>
  </g>
</svg>
